<?xml version="1.0" encoding="UTF-8" standalone="no"?>
<!-- Created with Inkscape (http://www.inkscape.org/) -->

<svg
   xmlns:dc="http://purl.org/dc/elements/1.1/"
   xmlns:cc="http://creativecommons.org/ns#"
   xmlns:rdf="http://www.w3.org/1999/02/22-rdf-syntax-ns#"
   xmlns:svg="http://www.w3.org/2000/svg"
   xmlns="http://www.w3.org/2000/svg"
   xmlns:sodipodi="http://sodipodi.sourceforge.net/DTD/sodipodi-0.dtd"
   xmlns:inkscape="http://www.inkscape.org/namespaces/inkscape"
   width="64"
   height="32"
   id="svg3777"
   version="1.1"
   inkscape:version="0.48.5 r10040"
   sodipodi:docname="animals.svg">
  <defs
     id="defs3779" />
  <sodipodi:namedview
     id="base"
     pagecolor="#ffffff"
     bordercolor="#666666"
     borderopacity="1.0"
     inkscape:pageopacity="0.0"
     inkscape:pageshadow="2"
     inkscape:zoom="11.197802"
     inkscape:cx="19.560843"
     inkscape:cy="27.090528"
     inkscape:current-layer="layer1"
     showgrid="true"
     inkscape:grid-bbox="true"
     inkscape:document-units="px"
     inkscape:window-width="632"
     inkscape:window-height="421"
     inkscape:window-x="283"
     inkscape:window-y="254"
     inkscape:window-maximized="0"
     inkscape:snap-global="false">
    <inkscape:grid
       type="xygrid"
       id="grid3860"
       empspacing="5"
       visible="true"
       enabled="true"
       snapvisiblegridlinesonly="true" />
  </sodipodi:namedview>
  <metadata
     id="metadata3782">
    <rdf:RDF>
      <cc:Work
         rdf:about="">
        <dc:format>image/svg+xml</dc:format>
        <dc:type
           rdf:resource="http://purl.org/dc/dcmitype/StillImage" />
      </cc:Work>
    </rdf:RDF>
  </metadata>
  <g
     id="layer1"
     inkscape:label="Layer 1"
     inkscape:groupmode="layer">
    <path
       inkscape:connector-curvature="0"
       d="M 27.919252,2.0547531 C 28.061969,1.9038229 28.107097,1.6950519 28.036928,1.5055927 27.967228,1.3166957 27.793318,1.1753276 27.579706,1.1347359 24.442848,0.53523416 21.876327,2.3613941 21.087753,3.0052376 18.639371,1.8327641 16.044901,1.6824901 14.097346,1.6824901 c -2.701437,0 -5.4268639,1.6544185 -6.0857369,3.8845276 -0.193792,0.6558425 -0.927789,1.047417 -1.64666,0.8780191 l -5.26e-4,0 c -0.466604,-0.110057 -0.962412,-0.044997 -1.377676,0.1787725 -0.415002,0.2244263 -0.7157,0.590221 -0.836743,1.0188249 -0.250611,0.8908623 0.335647,1.7986927 1.308698,2.0284622 l 5.9669419,1.4059926 c 0.183086,0.976452 0.600731,2.460442 1.498789,2.975291 0.07763,0.04406 0.17628,0.04687 0.258011,0.01125 0.08146,-0.04031 0.13459,-0.114181 0.139347,-0.198459 0.02611,-0.48513 0.318999,-1.459052 0.909424,-2.095302 0.351108,1.184379 1.405162,4.21376 3.186477,4.932977 0.125869,0.04968 0.271558,0.03655 0.382692,-0.03748 0.111394,-0.07407 0.17245,-0.195272 0.160092,-0.320891 -0.07644,-0.736276 -0.07763,-2.04965 0.601194,-3.021227 0.771463,0.460573 1.466677,1.03851 2.012635,1.828316 1.560964,2.257951 1.158914,5.965582 0.770207,8.549299 -2.140419,-0.03655 -5.069677,1.422958 -5.940643,2.916699 -0.02121,0.03468 -0.01547,0.07969 0.01395,0.108839 0.02994,0.02905 0.07717,0.03844 0.117215,0.0225 0.752631,-0.301951 1.641239,-0.300358 2.422811,0.08155 0.674468,0.329794 1.135786,0.877549 1.340743,1.497393 0.0789,0.236894 0.25709,0.435729 0.495809,0.552911 0.239181,0.116525 0.519199,0.142118 0.778401,0.06938 0.676448,-0.188522 1.430273,-0.141556 2.104739,0.188147 0.780844,0.382106 1.277116,1.056229 1.421087,1.797099 0.0074,0.03843 0.04175,0.07032 0.08517,0.07594 0.04342,0.01125 0.08609,-0.01219 0.107565,-0.04873 0.903078,-1.547735 0.541134,-4.750265 -0.796041,-6.305126 4.268085,-4.438098 5.637767,-11.352848 2.48915,-16.9666046 -0.100563,-0.1800302 -0.21031,-0.3396785 -0.315167,-0.509264 -0.278297,-2.0922097 1.298589,-4.124047 2.249901,-5.1258101 z"
       id="dolphin"
       inkscape:label="#path3"
       style="fill-opacity:1" />
    <g
       transform="matrix(0.14004878,0,0,0.12677949,31.53926,1.0548319)"
       id="cat"
       inkscape:label="#g3">
      <g
         id="g5">
        <path
           inkscape:connector-curvature="0"
           d="m 197.023,225.545 c -1.145,-9.533 -11.68,-10.614 -17.805,-9.958 -6.521,-24.554 16.225,-61.151 17.563,-69.82 1.438,-9.312 -6.658,-63.5 -7.513,-90.938 C 188.389,26.662 147.48,-4.433 140.65,0.524 c -6.768,7.484 9.748,17.585 1.054,26.245 -8.398,8.367 -10.588,13.99 -16.824,23.46 -15.976,24.255 27.318,24.558 27.318,24.558 0,0 -33.882,25.112 -41.421,37.768 -6.943,11.656 -9.854,24.696 -18.232,35.688 -19.094,25.051 -14.791,68.729 -14.791,68.729 0,0 -36.17,-11.839 -16.264,-53.133 C 76.643,132.406 84.107,86.02 50.016,97.95 c -13.189,4.616 2.949,14.325 5.734,17.435 9.318,10.4 1.441,27.896 -4.174,38.012 -15.037,27.091 -20.496,55.475 11.154,72.978 14.063,7.776 33.055,9.7 52.17,9.982 l 48.64,0.14 c 16.024,0.797 34.149,-2.199 33.483,-10.952 z"
           id="path7" />
      </g>
    </g>
  </g>
</svg>

